<svg xmlns="http://www.w3.org/2000/svg" width="10" height="16.667" viewBox="0 0 10 16.667">
  <path id="Path" d="M5.324,6.648a5.58,5.58,0,0,1-1.3-.626c-.769-.53-.622-1.391.279-1.731A2.588,2.588,0,0,1,5.1,4.149a6.845,6.845,0,0,1,2.982.509c.47.2.626.134.785-.289.167-.447.307-.9.462-1.353.1-.3-.024-.5-.355-.63A8.5,8.5,0,0,0,7.094,1.9c-.853-.114-.853-.117-.857-.857C6.233,0,6.233,0,5.021,0,4.846,0,4.671,0,4.5,0c-.566.014-.662.1-.678.592-.008.22,0,.441,0,.664,0,.654-.008.644-.733.871C1.326,2.68.242,3.712.127,5.365.023,6.827.908,7.815,2.3,8.535A26.041,26.041,0,0,0,5.013,9.588a4.215,4.215,0,0,1,.989.5,1.108,1.108,0,0,1-.323,2.052,3.723,3.723,0,0,1-1.742.2,8.707,8.707,0,0,1-2.655-.685c-.49-.22-.634-.162-.8.3-.143.4-.271.8-.4,1.194-.171.537-.108.664.486.916a9.52,9.52,0,0,0,2.392.592c.646.089.666.114.674.692,0,.262,0,.527.008.788,0,.33.187.523.582.53.446.007.9.007,1.343,0,.367-.007.554-.179.554-.5,0-.358.02-.719,0-1.077s.163-.551.57-.647a4.63,4.63,0,0,0,2.348-1.3c1.706-1.79,1.056-4.409-1.359-5.563A25.176,25.176,0,0,0,5.324,6.648Z" transform="translate(0)" fill="#47e3a1"/>
</svg>
