<svg xmlns="http://www.w3.org/2000/svg" width="56" height="56" viewBox="0 0 56 56">
  <g id="Icon_Button_Large" data-name="Icon Button / Large" transform="translate(4 4)">
    <rect id="Icon_Button_Large_Background_" data-name="Icon Button / Large (Background)" width="48" height="48" fill="none"/>
    <rect id="Rectangle" width="56" height="56" rx="12" transform="translate(-4 -4)" fill="#ffe7cc"/>
    <g id="Withdraw_Fill" data-name="Withdraw Fill" transform="translate(5.335 5.335)">
      <rect id="Withdraw_Fill_Background_" data-name="Withdraw Fill (Background)" width="36" height="36" transform="translate(0.665 0.666)" fill="none"/>
      <g id="Withdraw_Fill-2" data-name="Withdraw Fill" transform="translate(1.052 1.052)">
        <rect id="Withdraw_Fill_Background_2" data-name="Withdraw Fill (Background)" width="29.268" height="29.268" transform="translate(1.709 3.171)" fill="none"/>
        <g id="authentication">
          <path id="Path_34" data-name="Path 34" d="M55.78,37l-.868.868.413.413a.686.686,0,0,1,.2.487v.149a.686.686,0,0,1-.2.487l-4.764,4.764a1.916,1.916,0,0,0,2.71,2.71l.233-.233-.868-.868-.233.233a.689.689,0,0,1-.974-.974l4.764-4.764a1.9,1.9,0,0,0,.561-1.355v-.149a1.9,1.9,0,0,0-.561-1.355Z" transform="translate(-21.141 -16.123)" fill="#ff8700"/>
          <path id="Path_35" data-name="Path 35" d="M29,7h2.456V8.228H29Z" transform="translate(-13.035 -4.544)" fill="#ff8700"/>
          <path id="Path_36" data-name="Path 36" d="M35,7h2.456V8.228H35Z" transform="translate(-15.351 -4.544)" fill="#ff8700"/>
          <path id="Path_37" data-name="Path 37" d="M27.561,23.623V3H9.14V9.14H3V36.157H17.269l1.794-4.038Zm-1.228.254h-6.14V22.649h6.14Zm0-2.456h-6.14V20.193h6.14Zm0-2.456h-6.14V17.736h6.14Zm0-2.456H25.1V15.28h1.234ZM10.368,4.228H26.333V7.912H10.368ZM9.14,10.368H26.333V11.6H9.14Zm-2.456,0H7.912V11.6H6.684Zm-2.456,0H5.456V11.6H4.228Zm0,2.456h22.1v1.228H4.228Zm0,2.456H23.917v1.228H4.228Zm14.736,8.8a12.352,12.352,0,0,1-5.885,10.483l-.045.025a3.215,3.215,0,0,1-2.875,0A12.365,12.365,0,0,1,4.228,24.082v-3.89h.614a9.925,9.925,0,0,0,6.178-2.167l.577-.462.577.462a9.925,9.925,0,0,0,6.178,2.167h.614Z" transform="translate(-3 -3)" fill="#ff8700"/>
          <path id="Path_38" data-name="Path 38" d="M7,31.545v2.679a11.116,11.116,0,0,0,5.3,9.434,2.1,2.1,0,0,0,1.711-.014,11.118,11.118,0,0,0,5.273-9.42V31.545a11.164,11.164,0,0,1-6.14-2.27A11.164,11.164,0,0,1,7,31.545Zm8.6,3.087H14.368a.615.615,0,0,0-.614-.614H11.912v.614a.615.615,0,0,0,.614.614h1.228A1.844,1.844,0,0,1,15.6,37.088V38.93H13.754v1.228H12.526V38.93a1.844,1.844,0,0,1-1.842-1.842h1.228a.615.615,0,0,0,.614.614h1.842v-.614a.615.615,0,0,0-.614-.614H12.526a1.844,1.844,0,0,1-1.842-1.842V32.79h1.842V31.562h1.228V32.79A1.844,1.844,0,0,1,15.6,34.632Z" transform="translate(-4.544 -13.142)" fill="#ff8700"/>
          <path id="Path_39" data-name="Path 39" d="M17,7h2.456V8.228H17Z" transform="translate(-8.404 -4.544)" fill="#ff8700"/>
          <path id="Path_40" data-name="Path 40" d="M8.458,4.414,4.414,8.458H8.458Z" transform="translate(-3.546 -3.546)" fill="#ff8700"/>
          <path id="Path_41" data-name="Path 41" d="M23,7h2.456V8.228H23Z" transform="translate(-10.72 -4.544)" fill="#ff8700"/>
          <path id="Path_42" data-name="Path 42" d="M27.034,57.249a.4.4,0,0,0-.034.162.41.41,0,0,0,.561.365l4.513-2.006L29.04,52.736Z" transform="translate(-12.264 -22.197)" fill="#ff8700"/>
          <path id="Path_43" data-name="Path 43" d="M56.2,31.14a2.425,2.425,0,1,0-3.43-3.43l-2.36,2.36,3.43,3.43Z" transform="translate(-21.301 -12.264)" fill="#ff8700"/>
          <path id="Path_44" data-name="Path 44" d="M41.616,55.616v-2.2l-2.2,2.2Z" transform="translate(-17.055 -22.459)" fill="#ff8700"/>
          <path id="Path_45" data-name="Path 45" d="M0,0H10.061V4.851H0Z" transform="translate(21.126 25.788) rotate(-45)" fill="#ff8700"/>
          <path id="Path_46" data-name="Path 46" d="M0,0H1.377V4.851H0Z" transform="translate(17.442 29.472) rotate(-45)" fill="#ff8700"/>
          <path id="Path_47" data-name="Path 47" d="M0,0H1.377V4.851H0Z" transform="translate(19.284 27.63) rotate(-45)" fill="#ff8700"/>
        </g>
      </g>
    </g>
  </g>
</svg>
