<svg xmlns="http://www.w3.org/2000/svg" id="Send" width="24" height="24" viewBox="0 0 24 24">
  <rect id="Send_Background_" data-name="Send (Background)" width="24" height="24" fill="none"/>
  <path id="Combined_Shape" data-name="Combined Shape" d="M2.381,20A2.38,2.38,0,0,1,0,17.62V10.477A2.381,2.381,0,0,1,2.381,8.1H4.467A1.4,1.4,0,0,1,5.838,9.124a4.285,4.285,0,0,0,8.323,0A1.4,1.4,0,0,1,15.533,8.1h1.748A2.477,2.477,0,0,1,20,10.477V17.62A2.38,2.38,0,0,1,17.619,20ZM9.048,10A.953.953,0,0,1,8.1,9.048V5.468H6.433a.953.953,0,0,1-.671-1.629L9.328.277a.951.951,0,0,1,1.343,0l3.567,3.561a.952.952,0,0,1-.671,1.629H11.905v3.58a.953.953,0,0,1-.952.953Z" transform="translate(2 2)" fill="#47e3a1"/>
</svg>