<svg xmlns="http://www.w3.org/2000/svg" width="56" height="56" viewBox="0 0 56 56">
  <g id="Icon_Button_Large" data-name="Icon Button / Large" transform="translate(4 4)">
    <rect id="Icon_Button_Large_Background_" data-name="Icon Button / Large (Background)" width="48" height="48" fill="none"/>
    <rect id="Rectangle" width="56" height="56" rx="12" transform="translate(-4 -4)" fill="#d3efe5"/>
    <g id="_x31_2" transform="translate(6.87 6.059)">
      <path id="Path_100" data-name="Path 100" d="M19.227,2.9V4.3a1.4,1.4,0,0,1-1.4,1.4H11.612a1.4,1.4,0,0,1-1.4-1.4V2.9a1.4,1.4,0,0,1,1.4-1.4h6.216A1.4,1.4,0,0,1,19.227,2.9Z" transform="translate(2.413 0)" fill="#22b07d"/>
      <path id="Path_101" data-name="Path 101" d="M26.282,3.032h-1.9v.7A4.143,4.143,0,0,1,20.24,7.869H14.02A4.151,4.151,0,0,1,9.883,3.731v-.7h-1.9A4.3,4.3,0,0,0,3.69,7.321V29.542a4.283,4.283,0,0,0,4.288,4.274h18.3a4.283,4.283,0,0,0,4.288-4.274V7.321A4.3,4.3,0,0,0,26.282,3.032ZM17.153,19.506h.041a4.087,4.087,0,0,1,4.112,4.02A4.018,4.018,0,0,1,18.3,27.3v.859a1.165,1.165,0,0,1-2.329,0v-.847a3.97,3.97,0,0,1-3.05-3.849,1.165,1.165,0,0,1,1.165-1.155h.009a1.164,1.164,0,0,1,1.156,1.173,1.773,1.773,0,0,0,1.85,1.672h.015a1.672,1.672,0,1,0,.013-3.323h-.011a4.1,4.1,0,0,1-4.156-3.99,4.018,4.018,0,0,1,3.03-3.814v-.853a1.165,1.165,0,0,1,2.329,0v.853a4.018,4.018,0,0,1,3.03,3.814,1.165,1.165,0,0,1-2.329,0,1.774,1.774,0,0,0-1.865-1.662,1.774,1.774,0,0,0-1.865,1.662A1.774,1.774,0,0,0,17.153,19.506Z" transform="translate(0 0.568)" fill="#22b07d"/>
    </g>
  </g>
</svg>
